<svg xmlns="http://www.w3.org/2000/svg" xmlns:xlink="http://www.w3.org/1999/xlink" width="300" zoomAndPan="magnify" viewBox="0 0 375 374.999991" height="300" preserveAspectRatio="xMidYMid meet" version="1.0"><defs><g/><clipPath id="3c98334241"><path d="M 113 79 L 177 79 L 177 145 L 113 145 Z M 113 79 " clip-rule="nonzero"/></clipPath><clipPath id="97db5f9210"><path d="M 104.421875 85.386719 L 174.96875 70.980469 L 188.621094 137.851562 L 118.078125 152.257812 Z M 104.421875 85.386719 " clip-rule="nonzero"/></clipPath><clipPath id="82176f1b3c"><path d="M 104.421875 85.386719 L 174.96875 70.980469 L 188.621094 137.851562 L 118.078125 152.257812 Z M 104.421875 85.386719 " clip-rule="nonzero"/></clipPath><clipPath id="8f7a323da3"><path d="M 68 102 L 116 102 L 116 136 L 68 136 Z M 68 102 " clip-rule="nonzero"/></clipPath><clipPath id="7ccdc26431"><path d="M 67.414062 101.460938 L 112.164062 96.753906 L 116.636719 139.269531 L 71.886719 143.976562 Z M 67.414062 101.460938 " clip-rule="nonzero"/></clipPath><clipPath id="ac6a050b5e"><path d="M 112.480469 96.71875 L 67.726562 101.425781 L 72.199219 143.941406 L 116.953125 139.234375 Z M 112.480469 96.71875 " clip-rule="nonzero"/></clipPath></defs><g fill="#000000" fill-opacity="1"><g transform="translate(38.542051, 185.307656)"><g><path d="M 25.203125 0.675781 C 28.667969 0.675781 32.628906 0 35.691406 -1.351562 C 38.75 -2.699219 40.910156 -4.816406 40.867188 -7.695312 C 40.867188 -10.351562 39.15625 -12.015625 37.132812 -12.828125 C 35.105469 -13.636719 32.628906 -13.503906 31.011719 -12.738281 C 29.34375 -11.523438 27.410156 -10.800781 25.292969 -10.800781 C 23.179688 -10.800781 21.289062 -11.703125 19.847656 -13.050781 C 18.40625 -14.402344 17.371094 -16.15625 17.191406 -17.957031 L 41.363281 -17.957031 C 43.386719 -17.957031 45.007812 -18.183594 46.085938 -18.902344 C 47.167969 -19.625 47.707031 -20.792969 47.707031 -22.730469 C 47.707031 -28.894531 45.1875 -34.296875 41.179688 -38.121094 C 37.175781 -41.902344 31.550781 -44.195312 25.382812 -44.195312 C 19.21875 -44.195312 13.546875 -41.722656 9.453125 -37.714844 C 5.3125 -33.710938 2.746094 -28.085938 2.746094 -21.738281 C 2.746094 -15.574219 5.265625 -9.945312 9.363281 -5.894531 C 13.457031 -1.84375 19.082031 0.675781 25.203125 0.675781 Z M 25.382812 -32.898438 C 27.230469 -32.898438 29.210938 -32.226562 30.695312 -31.011719 C 32.179688 -29.792969 33.304688 -28.128906 33.484375 -26.195312 L 17.011719 -26.195312 C 17.328125 -28.128906 18.40625 -29.792969 19.9375 -31.011719 C 21.46875 -32.226562 23.402344 -32.898438 25.382812 -32.898438 Z M 25.382812 -32.898438 "/></g></g></g><g fill="#000000" fill-opacity="1"><g transform="translate(88.993227, 185.307656)"><g><path d="M 41.585938 -37.625 C 39.832031 -39.5625 37.355469 -41.226562 34.476562 -42.398438 C 31.59375 -43.566406 28.398438 -44.195312 25.160156 -44.195312 C 18.992188 -44.195312 13.414062 -41.675781 9.363281 -37.582031 C 5.3125 -33.484375 2.746094 -27.90625 2.746094 -21.738281 C 2.746094 -15.574219 5.3125 -9.945312 9.363281 -5.894531 C 13.414062 -1.84375 18.992188 0.71875 25.160156 0.71875 C 30.605469 0.71875 35.332031 -0.71875 38.660156 -2.925781 C 41.992188 -5.085938 43.972656 -7.964844 43.972656 -10.980469 C 43.972656 -13.683594 42.667969 -15.664062 40.6875 -16.699219 C 38.570312 -17.734375 36.097656 -17.460938 34.25 -16.519531 C 32.585938 -15.300781 30.648438 -14.222656 28.535156 -13.816406 C 25.609375 -13.140625 22.683594 -13.503906 20.523438 -14.851562 C 18.363281 -16.203125 16.921875 -18.496094 16.921875 -21.738281 C 16.921875 -25.113281 18.496094 -27.410156 20.703125 -28.714844 C 22.910156 -29.976562 25.835938 -30.246094 28.535156 -29.660156 C 30.019531 -29.164062 31.414062 -28.535156 32.808594 -27.859375 C 34.207031 -27.183594 35.601562 -26.597656 37.039062 -26.238281 C 39.019531 -26.058594 40.777344 -26.777344 41.992188 -27.949219 C 43.207031 -29.121094 43.925781 -30.785156 43.925781 -32.585938 C 43.925781 -34.339844 43.027344 -36.050781 41.585938 -37.625 Z M 41.585938 -37.625 "/></g></g></g><g fill="#000000" fill-opacity="1"><g transform="translate(135.753953, 185.307656)"><g><path d="M 2.746094 -21.785156 C 2.746094 -15.617188 5.265625 -9.992188 9.363281 -5.941406 C 13.457031 -1.890625 19.082031 0.675781 25.203125 0.675781 C 31.371094 0.675781 37.039062 -1.890625 41.089844 -5.941406 C 45.140625 -9.992188 47.664062 -15.617188 47.664062 -21.785156 C 47.664062 -27.90625 45.140625 -33.574219 41.089844 -37.625 C 37.039062 -41.675781 31.371094 -44.195312 25.203125 -44.195312 C 19.082031 -44.195312 13.457031 -41.675781 9.363281 -37.625 C 5.265625 -33.574219 2.746094 -27.90625 2.746094 -21.785156 Z M 16.921875 -21.785156 C 16.921875 -24.125 17.824219 -26.285156 19.308594 -27.859375 C 20.792969 -29.433594 22.863281 -30.425781 25.203125 -30.425781 C 27.542969 -30.425781 29.613281 -29.433594 31.101562 -27.859375 C 32.585938 -26.285156 33.484375 -24.125 33.484375 -21.785156 C 33.484375 -19.441406 32.585938 -17.238281 31.101562 -15.664062 C 29.613281 -14.042969 27.542969 -13.050781 25.203125 -13.050781 C 22.863281 -13.050781 20.792969 -14.042969 19.308594 -15.664062 C 17.824219 -17.238281 16.921875 -19.441406 16.921875 -21.785156 Z M 16.921875 -21.785156 "/></g></g></g><g clip-path="url(#3c98334241)"><g clip-path="url(#97db5f9210)"><g clip-path="url(#82176f1b3c)"><path fill="#aed768" d="M 161.636719 86.117188 C 128.355469 92.757812 113.671875 111.925781 118.707031 144.378906 C 118.769531 144.785156 118.183594 144.929688 118.046875 144.539062 C 114.417969 134.34375 112.75 124.714844 113.71875 115.851562 C 116.90625 86.597656 149.726562 76.144531 175.308594 79.972656 C 176.582031 80.164062 177.132812 81.644531 176.308594 82.636719 C 160.773438 101.277344 171.574219 141.285156 122.789062 132.953125 C 125.367188 109.574219 137.066406 93.023438 161.636719 86.117188 " fill-opacity="1" fill-rule="evenodd"/></g></g></g><g clip-path="url(#8f7a323da3)"><g clip-path="url(#7ccdc26431)"><g clip-path="url(#ac6a050b5e)"><path fill="#aed768" d="M 78.277344 108.011719 C 99.515625 105.683594 111.964844 114.402344 115.101562 134.835938 C 115.140625 135.09375 115.519531 135.066406 115.53125 134.808594 C 115.773438 128 114.945312 121.902344 112.683594 116.765625 C 105.214844 99.816406 83.535156 99.769531 68.90625 106.921875 C 68.179688 107.277344 68.128906 108.269531 68.8125 108.710938 C 81.675781 116.949219 82.785156 143.015625 110.484375 128.753906 C 104.5 115.210938 94.335938 107.496094 78.277344 108.011719 " fill-opacity="1" fill-rule="evenodd"/></g></g></g><g fill="#000000" fill-opacity="1"><g transform="translate(82.868292, 246.840172)"><g><path d="M 43.882812 -37.625 C 40.144531 -41.675781 34.878906 -44.195312 28.714844 -44.195312 C 22.910156 -44.195312 18.136719 -41.945312 14.71875 -38.257812 L 14.402344 -39.066406 C 13.367188 -42.441406 11.476562 -44.195312 8.777344 -44.195312 C 6.164062 -44.195312 4.859375 -42.890625 4.859375 -40.328125 L 4.859375 7.875 C 4.859375 9.902344 5.625 11.65625 6.886719 12.917969 C 8.144531 14.175781 9.945312 14.941406 11.925781 14.941406 C 13.863281 14.941406 15.617188 14.175781 16.921875 12.917969 C 18.183594 11.65625 18.992188 9.902344 18.992188 7.875 L 18.992188 -2.476562 C 21.964844 -0.496094 25.339844 0.675781 28.714844 0.675781 C 34.878906 0.675781 40.144531 -1.890625 43.882812 -5.941406 C 47.617188 -9.992188 49.777344 -15.617188 49.777344 -21.785156 C 49.777344 -27.90625 47.617188 -33.574219 43.882812 -37.625 Z M 33.261719 -15.664062 C 31.773438 -14.042969 29.660156 -13.050781 27.320312 -13.050781 C 24.980469 -13.050781 22.910156 -14.042969 21.421875 -15.664062 C 19.9375 -17.238281 19.039062 -19.441406 19.039062 -21.785156 C 19.039062 -24.125 19.9375 -26.285156 21.421875 -27.859375 C 22.910156 -29.433594 24.980469 -30.425781 27.320312 -30.425781 C 29.660156 -30.425781 31.773438 -29.433594 33.261719 -27.859375 C 34.746094 -26.285156 35.644531 -24.125 35.644531 -21.785156 C 35.644531 -19.441406 34.746094 -17.238281 33.261719 -15.664062 Z M 33.261719 -15.664062 "/></g></g></g><g fill="#000000" fill-opacity="1"><g transform="translate(135.389724, 246.840172)"><g><path d="M 4.5 -56.214844 C 4.5 -54.1875 5.3125 -52.386719 6.617188 -51.128906 C 7.875 -49.867188 9.722656 -49.101562 11.746094 -49.101562 C 13.726562 -49.101562 15.574219 -49.867188 16.878906 -51.128906 C 18.183594 -52.386719 18.992188 -54.1875 18.992188 -56.214844 C 18.992188 -58.195312 18.183594 -59.996094 16.878906 -61.300781 C 15.574219 -62.558594 13.726562 -63.324219 11.746094 -63.324219 C 9.722656 -63.324219 7.875 -62.558594 6.617188 -61.300781 C 5.3125 -59.996094 4.5 -58.195312 4.5 -56.214844 Z M 4.859375 -6.390625 C 4.859375 -4.410156 5.625 -2.65625 6.886719 -1.394531 C 8.144531 -0.0898438 9.902344 0.675781 11.882812 0.675781 C 13.863281 0.675781 15.617188 -0.0898438 16.878906 -1.394531 C 18.136719 -2.65625 18.949219 -4.410156 18.949219 -6.390625 L 18.949219 -37.222656 C 18.949219 -39.203125 18.136719 -40.957031 16.878906 -42.214844 C 15.617188 -43.476562 13.863281 -44.285156 11.882812 -44.285156 C 9.902344 -44.285156 8.144531 -43.476562 6.886719 -42.214844 C 5.625 -40.957031 4.859375 -39.203125 4.859375 -37.222656 Z M 4.859375 -6.390625 "/></g></g></g><g fill="#000000" fill-opacity="1"><g transform="translate(159.197645, 246.840172)"><g><path d="M 41.585938 -37.625 C 39.832031 -39.5625 37.355469 -41.226562 34.476562 -42.398438 C 31.59375 -43.566406 28.398438 -44.195312 25.160156 -44.195312 C 18.992188 -44.195312 13.414062 -41.675781 9.363281 -37.582031 C 5.3125 -33.484375 2.746094 -27.90625 2.746094 -21.738281 C 2.746094 -15.574219 5.3125 -9.945312 9.363281 -5.894531 C 13.414062 -1.84375 18.992188 0.71875 25.160156 0.71875 C 30.605469 0.71875 35.332031 -0.71875 38.660156 -2.925781 C 41.992188 -5.085938 43.972656 -7.964844 43.972656 -10.980469 C 43.972656 -13.683594 42.667969 -15.664062 40.6875 -16.699219 C 38.570312 -17.734375 36.097656 -17.460938 34.25 -16.519531 C 32.585938 -15.300781 30.648438 -14.222656 28.535156 -13.816406 C 25.609375 -13.140625 22.683594 -13.503906 20.523438 -14.851562 C 18.363281 -16.203125 16.921875 -18.496094 16.921875 -21.738281 C 16.921875 -25.113281 18.496094 -27.410156 20.703125 -28.714844 C 22.910156 -29.976562 25.835938 -30.246094 28.535156 -29.660156 C 30.019531 -29.164062 31.414062 -28.535156 32.808594 -27.859375 C 34.207031 -27.183594 35.601562 -26.597656 37.039062 -26.238281 C 39.019531 -26.058594 40.777344 -26.777344 41.992188 -27.949219 C 43.207031 -29.121094 43.925781 -30.785156 43.925781 -32.585938 C 43.925781 -34.339844 43.027344 -36.050781 41.585938 -37.625 Z M 41.585938 -37.625 "/></g></g></g><g fill="#000000" fill-opacity="1"><g transform="translate(205.958371, 246.840172)"><g><path d="M 47.257812 -10.710938 L 37.535156 -25.789062 L 44.78125 -31.324219 C 46.71875 -32.71875 48.246094 -34.925781 48.382812 -37.222656 C 48.382812 -38.167969 48.15625 -39.109375 47.84375 -39.964844 C 47.484375 -40.910156 46.941406 -41.675781 46.222656 -42.351562 C 44.738281 -43.65625 42.621094 -44.511719 40.328125 -44.105469 C 38.570312 -43.523438 36.949219 -42.621094 35.511719 -41.542969 L 18.992188 -29.074219 L 18.992188 -51.171875 C 18.992188 -53.152344 18.183594 -54.910156 16.921875 -56.167969 C 15.617188 -57.429688 13.863281 -58.238281 11.925781 -58.238281 C 9.945312 -58.238281 8.144531 -57.429688 6.886719 -56.167969 C 5.625 -54.910156 4.859375 -53.152344 4.859375 -51.171875 L 4.859375 -6.390625 C 4.859375 -4.410156 5.625 -2.65625 6.886719 -1.394531 C 8.144531 -0.0898438 9.945312 0.675781 11.925781 0.675781 C 13.863281 0.675781 15.617188 -0.0898438 16.921875 -1.394531 C 18.183594 -2.65625 18.992188 -4.410156 18.992188 -6.390625 L 18.992188 -12.105469 C 19.441406 -12.46875 19.894531 -12.828125 20.386719 -13.1875 C 20.839844 -13.503906 21.378906 -13.90625 21.964844 -14.355469 C 23.132812 -15.210938 24.617188 -16.292969 26.644531 -17.867188 L 36.546875 -2.339844 C 37.984375 -0.539062 40.144531 0.765625 42.351562 0.539062 C 45.097656 0.496094 47.300781 -1.351562 48.292969 -3.601562 C 49.28125 -5.851562 49.101562 -8.597656 47.257812 -10.710938 Z M 47.257812 -10.710938 "/></g></g></g><g fill="#000000" fill-opacity="1"><g transform="translate(256.724579, 246.840172)"><g><path d="M 25.203125 0.675781 C 28.667969 0.675781 32.628906 0 35.691406 -1.351562 C 38.75 -2.699219 40.910156 -4.816406 40.867188 -7.695312 C 40.867188 -10.351562 39.15625 -12.015625 37.132812 -12.828125 C 35.105469 -13.636719 32.628906 -13.503906 31.011719 -12.738281 C 29.34375 -11.523438 27.410156 -10.800781 25.292969 -10.800781 C 23.179688 -10.800781 21.289062 -11.703125 19.847656 -13.050781 C 18.40625 -14.402344 17.371094 -16.15625 17.191406 -17.957031 L 41.363281 -17.957031 C 43.386719 -17.957031 45.007812 -18.183594 46.085938 -18.902344 C 47.167969 -19.625 47.707031 -20.792969 47.707031 -22.730469 C 47.707031 -28.894531 45.1875 -34.296875 41.179688 -38.121094 C 37.175781 -41.902344 31.550781 -44.195312 25.382812 -44.195312 C 19.21875 -44.195312 13.546875 -41.722656 9.453125 -37.714844 C 5.3125 -33.710938 2.746094 -28.085938 2.746094 -21.738281 C 2.746094 -15.574219 5.265625 -9.945312 9.363281 -5.894531 C 13.457031 -1.84375 19.082031 0.675781 25.203125 0.675781 Z M 25.382812 -32.898438 C 27.230469 -32.898438 29.210938 -32.226562 30.695312 -31.011719 C 32.179688 -29.792969 33.304688 -28.128906 33.484375 -26.195312 L 17.011719 -26.195312 C 17.328125 -28.128906 18.40625 -29.792969 19.9375 -31.011719 C 21.46875 -32.226562 23.402344 -32.898438 25.382812 -32.898438 Z M 25.382812 -32.898438 "/></g></g></g><g fill="#000000" fill-opacity="1"><g transform="translate(307.175755, 246.840172)"><g><path d="M 33.980469 -42.578125 C 31.59375 -43.746094 28.535156 -44.105469 26.058594 -44.0625 C 23.492188 -43.835938 21.152344 -42.980469 19.039062 -41.902344 C 17.28125 -41 15.796875 -39.832031 14.539062 -38.660156 L 14.402344 -39.066406 C 13.1875 -42.710938 11.476562 -44.195312 8.777344 -44.195312 C 6.164062 -44.195312 4.859375 -42.890625 4.859375 -40.328125 L 4.859375 -6.390625 C 4.859375 -4.410156 5.625 -2.65625 6.886719 -1.394531 C 8.144531 -0.0898438 9.945312 0.675781 11.925781 0.675781 C 13.863281 0.675781 15.617188 -0.0898438 16.921875 -1.394531 C 18.183594 -2.65625 18.992188 -4.410156 18.992188 -6.390625 L 18.992188 -22.324219 C 19.308594 -26.058594 20.792969 -29.03125 23.671875 -30.066406 C 24.800781 -30.378906 25.925781 -30.46875 27.050781 -30.335938 C 28.175781 -30.15625 29.300781 -30.066406 30.378906 -30.019531 C 32.71875 -30.019531 34.339844 -30.46875 35.78125 -31.59375 C 37.175781 -32.71875 38.167969 -34.519531 38.167969 -36.5 C 38.167969 -39.425781 36.367188 -41.40625 33.980469 -42.578125 Z M 33.980469 -42.578125 "/></g></g></g></svg>